<svg width="32" height="32" viewBox="0 0 32 32" fill="none" xmlns="http://www.w3.org/2000/svg">
<g clip-path="url(#clip0_19_76)">
<path d="M8.83691 11.96V9.83594C8.83691 8.72266 8.96875 7.80957 9.23242 7.09668C9.50586 6.38379 9.96484 5.77832 10.6094 5.28027C11.2637 4.78223 11.9961 4.4502 12.8066 4.28418V5.9834C12.2305 6.31543 11.9033 6.75977 11.8252 7.31641H12.8066V11.96H8.83691ZM19.1787 11.96V9.83594C19.1787 8.72266 19.3105 7.80957 19.5742 7.09668C19.8477 6.38379 20.3066 5.77832 20.9512 5.28027C21.6055 4.78223 22.3379 4.4502 23.1484 4.28418V5.9834C22.5723 6.31543 22.2451 6.75977 22.167 7.31641H23.1484V11.96H19.1787Z" fill="black"/>
</g>
<defs>
<clipPath id="clip0_19_76">
<rect width="32" height="32" fill="white"/>
</clipPath>
</defs>
</svg>
