<svg width="32" height="32" viewBox="0 0 32 32" fill="none" xmlns="http://www.w3.org/2000/svg">
<g clip-path="url(#clip0_1_2)">
<path d="M9.58345 25V7.54545H16.5721C17.8562 7.54545 18.9272 7.7358 19.7852 8.11648C20.6431 8.49716 21.288 9.02557 21.7198 9.7017C22.1516 10.3722 22.3675 11.1449 22.3675 12.0199C22.3675 12.7017 22.2312 13.3011 21.9585 13.8182C21.6857 14.3295 21.3107 14.75 20.8335 15.0795C20.3619 15.4034 19.8221 15.6335 19.2141 15.7699V15.9403C19.8789 15.9687 20.5011 16.1562 21.0806 16.5028C21.6658 16.8494 22.1403 17.3352 22.5039 17.9602C22.8675 18.5795 23.0494 19.3182 23.0494 20.1761C23.0494 21.1023 22.8192 21.929 22.359 22.6562C21.9045 23.3778 21.2312 23.9489 20.3391 24.3693C19.4471 24.7898 18.3477 25 17.0408 25H9.58345ZM13.2738 21.983H16.2823C17.3107 21.983 18.0607 21.7869 18.5323 21.3949C19.0039 20.9972 19.2397 20.4687 19.2397 19.8097C19.2397 19.3267 19.1232 18.9006 18.8903 18.5312C18.6573 18.1619 18.3249 17.8722 17.8931 17.6619C17.467 17.4517 16.9585 17.3466 16.3675 17.3466H13.2738V21.983ZM13.2738 14.8494H16.0096C16.5153 14.8494 16.9641 14.7614 17.3562 14.5852C17.7539 14.4034 18.0664 14.1477 18.2937 13.8182C18.5266 13.4886 18.6431 13.0938 18.6431 12.6335C18.6431 12.0028 18.4187 11.4943 17.9698 11.108C17.5266 10.7216 16.896 10.5284 16.0778 10.5284H13.2738V14.8494Z" fill="black"/>
</g>
<defs>
<clipPath id="clip0_1_2">
<rect width="32" height="32" fill="white"/>
</clipPath>
</defs>
</svg>
