<svg width="32" height="32" viewBox="0 0 32 32" fill="none" xmlns="http://www.w3.org/2000/svg">
<g clip-path="url(#clip0_9_38)">
<path d="M12.4836 3.39692V5.42769C11.6385 5.42769 10.9451 5.55487 10.4036 5.80923C9.86207 6.06359 9.62822 6.53949 9.70207 7.23692L10.1575 11.7538C10.2805 12.919 10.0795 13.7764 9.55437 14.3262C9.02925 14.8677 8.27027 15.2205 7.27745 15.3846C8.3113 15.5569 9.07848 15.9056 9.57899 16.4308C10.0877 16.9477 10.2805 17.8092 10.1575 19.0154L9.70207 23.5323C9.62822 24.2379 9.86207 24.7138 10.4036 24.96C10.9451 25.2144 11.6385 25.3415 12.4836 25.3415V27.3723C11.3431 27.3723 10.3503 27.2492 9.50514 27.0031C8.66822 26.7569 8.03643 26.3344 7.60976 25.7354C7.1913 25.1364 7.0395 24.3159 7.15437 23.2738L7.60976 19.0277C7.70002 18.1579 7.47848 17.5179 6.94514 17.1077C6.41181 16.6974 5.4354 16.4923 4.01591 16.4923V14.2769C5.4354 14.2769 6.41181 14.0759 6.94514 13.6738C7.47848 13.2718 7.70002 12.6318 7.60976 11.7538L7.15437 7.50769C7.0395 6.45744 7.1913 5.63282 7.60976 5.03385C8.03643 4.43487 8.66822 4.01231 9.50514 3.76615C10.3503 3.52 11.3431 3.39692 12.4836 3.39692ZM19.52 3.39692C20.6605 3.39692 21.6492 3.52 22.4862 3.76615C23.3313 4.01231 23.9631 4.43487 24.3815 5.03385C24.8082 5.63282 24.9641 6.45333 24.8492 7.49539L24.3938 11.7538C24.3036 12.6318 24.5456 13.2718 25.12 13.6738C25.6944 14.0759 26.6503 14.2769 27.9877 14.2769V16.4923C26.6585 16.4923 25.7026 16.6974 25.12 17.1077C24.5456 17.5179 24.3036 18.1579 24.3938 19.0277L24.8492 23.2615C24.9641 24.3118 24.8082 25.1364 24.3815 25.7354C23.9631 26.3344 23.3313 26.7569 22.4862 27.0031C21.6492 27.2492 20.6605 27.3723 19.52 27.3723V25.3415C20.3651 25.3415 21.0585 25.2144 21.6 24.96C22.1415 24.7138 22.3754 24.2379 22.3015 23.5323L21.8462 19.0154C21.7231 17.8092 21.9241 16.9477 22.4492 16.4308C22.9826 15.9056 23.799 15.561 24.8985 15.3969C23.7908 15.2246 22.9744 14.8677 22.4492 14.3262C21.9241 13.7764 21.7231 12.919 21.8462 11.7538L22.3015 7.23692C22.3754 6.53949 22.1415 6.06359 21.6 5.80923C21.0585 5.55487 20.3651 5.42769 19.52 5.42769V3.39692Z" fill="black"/>
</g>
<defs>
<clipPath id="clip0_9_38">
<rect width="32" height="32" fill="white"/>
</clipPath>
</defs>
</svg>
