<svg width="32" height="32" viewBox="0 0 32 32" fill="none" xmlns="http://www.w3.org/2000/svg">
<g clip-path="url(#clip0_1_8)">
<path d="M23.882 24.328V25H17.306V24.328L18.626 24.16C18.882 24.128 19.034 24.064 19.082 23.968C19.13 23.856 19.154 23.528 19.154 22.984V17.176H12.842V22.984C12.842 23.528 12.866 23.856 12.914 23.968C12.962 24.064 13.114 24.128 13.37 24.16L14.69 24.328V25H8.11403V24.328L9.43403 24.16C9.69003 24.128 9.84203 24.064 9.89003 23.968C9.93803 23.856 9.96203 23.528 9.96203 22.984V10.696C9.96203 10.152 9.93803 9.832 9.89003 9.736C9.84203 9.624 9.69003 9.552 9.43403 9.52L8.11403 9.352V8.68H14.69V9.352L13.37 9.52C13.114 9.552 12.962 9.624 12.914 9.736C12.866 9.832 12.842 10.152 12.842 10.696V16.336H19.154V10.696C19.154 10.152 19.13 9.832 19.082 9.736C19.034 9.624 18.882 9.552 18.626 9.52L17.306 9.352V8.68H23.882V9.352L22.562 9.52C22.306 9.552 22.154 9.624 22.106 9.736C22.058 9.832 22.034 10.152 22.034 10.696V22.984C22.034 23.528 22.058 23.856 22.106 23.968C22.154 24.064 22.306 24.128 22.562 24.16L23.882 24.328Z" fill="black"/>
</g>
<defs>
<clipPath id="clip0_1_8">
<rect width="32" height="32" fill="white"/>
</clipPath>
</defs>
</svg>
