<svg width="32" height="32" viewBox="0 0 32 32" fill="none" xmlns="http://www.w3.org/2000/svg">
<g clip-path="url(#clip0_1_6)">
<path d="M14.813 9.328L14.933 8.68H20.717L20.597 9.328L19.253 9.448C19.093 9.464 18.973 9.496 18.893 9.544C18.813 9.592 18.749 9.696 18.701 9.856C18.653 10 18.597 10.256 18.533 10.624L16.325 23.056C16.229 23.616 16.197 23.944 16.229 24.04C16.261 24.136 16.405 24.2 16.661 24.232L17.957 24.376L17.837 25H12.053L12.173 24.376L13.517 24.232C13.693 24.216 13.813 24.192 13.877 24.16C13.957 24.112 14.021 24.016 14.069 23.872C14.117 23.712 14.173 23.44 14.237 23.056L16.445 10.624C16.541 10.064 16.573 9.736 16.541 9.64C16.509 9.544 16.365 9.48 16.109 9.448L14.813 9.328Z" fill="black"/>
</g>
<defs>
<clipPath id="clip0_1_6">
<rect width="32" height="32" fill="white"/>
</clipPath>
</defs>
</svg>
