<svg width="32" height="32" viewBox="0 0 32 32" fill="none" xmlns="http://www.w3.org/2000/svg">
<g clip-path="url(#clip0_20_83)">
<path d="M22.6667 9.33333H17.3333V12H22.6667C24.8667 12 26.6667 13.8 26.6667 16C26.6667 18.2 24.8667 20 22.6667 20H17.3333V22.6667H22.6667C26.3467 22.6667 29.3333 19.68 29.3333 16C29.3333 12.32 26.3467 9.33333 22.6667 9.33333ZM14.6667 20H9.33334C7.13334 20 5.33334 18.2 5.33334 16C5.33334 13.8 7.13334 12 9.33334 12H14.6667V9.33333H9.33334C5.65334 9.33333 2.66667 12.32 2.66667 16C2.66667 19.68 5.65334 22.6667 9.33334 22.6667H14.6667V20ZM10.6667 14.6667H21.3333V17.3333H10.6667V14.6667Z" fill="black"/>
</g>
<defs>
<clipPath id="clip0_20_83">
<rect width="32" height="32" fill="white"/>
</clipPath>
</defs>
</svg>
