<svg width="32" height="32" viewBox="0 0 32 32" fill="none" xmlns="http://www.w3.org/2000/svg">
<rect x="11" y="8" width="17" height="3" fill="black"/>
<rect x="11" y="16" width="15" height="3" fill="black"/>
<rect x="11" y="24" width="12" height="3" fill="black"/>
<path d="M3.80992 13.2236C4.19283 13.2236 4.5183 13.2961 4.78633 13.441C5.05436 13.5832 5.25812 13.7761 5.39761 14.0195C5.53983 14.2602 5.61095 14.5282 5.61095 14.8236C5.61095 15.0725 5.56718 15.3159 5.47966 15.5538C5.39488 15.7891 5.25676 16.0379 5.0653 16.3005C4.87659 16.5603 4.62633 16.8503 4.31454 17.1703C4.00274 17.4875 3.6212 17.8513 3.16992 18.2615H5.74223L5.63556 19H2.11556V18.3026C2.62428 17.813 3.04274 17.3973 3.37095 17.0554C3.70189 16.7135 3.96035 16.4181 4.14633 16.1692C4.33505 15.9203 4.4677 15.6961 4.54428 15.4964C4.62086 15.294 4.65915 15.0889 4.65915 14.881C4.65915 14.5966 4.57847 14.3723 4.4171 14.2082C4.25573 14.0441 4.03146 13.9621 3.74428 13.9621C3.48992 13.9621 3.27659 14.0085 3.10428 14.1015C2.93471 14.1945 2.7665 14.345 2.59966 14.5528L2.00069 14.0974C2.22223 13.8157 2.47659 13.5997 2.76377 13.4492C3.05095 13.2988 3.39966 13.2236 3.80992 13.2236ZM8.16564 18.3149C8.16564 18.0961 8.24085 17.9101 8.39128 17.7569C8.54444 17.601 8.73316 17.5231 8.95744 17.5231C9.18171 17.5231 9.37043 17.601 9.52359 17.7569C9.67675 17.9101 9.75333 18.0961 9.75333 18.3149C9.75333 18.5337 9.67675 18.721 9.52359 18.8769C9.37043 19.0328 9.18171 19.1108 8.95744 19.1108C8.73316 19.1108 8.54444 19.0328 8.39128 18.8769C8.24085 18.721 8.16564 18.5337 8.16564 18.3149Z" fill="black"/>
<path d="M3.79351 21.2236C4.16821 21.2236 4.49095 21.2892 4.76171 21.4205C5.03248 21.5518 5.24035 21.7255 5.3853 21.9415C5.53026 22.1576 5.60274 22.3956 5.60274 22.6554C5.60274 23.0055 5.49471 23.2968 5.27864 23.5292C5.0653 23.7617 4.79864 23.9149 4.47864 23.9887C4.71385 24.0133 4.92992 24.079 5.12684 24.1856C5.3265 24.2923 5.48513 24.4441 5.60274 24.641C5.72308 24.8379 5.78325 25.0855 5.78325 25.3836C5.78325 25.7063 5.69847 25.999 5.52889 26.2615C5.35932 26.5214 5.12137 26.7279 4.81505 26.881C4.50872 27.0342 4.1477 27.1108 3.73197 27.1108C3.37642 27.1108 3.03727 27.0451 2.71454 26.9138C2.39454 26.7826 2.1224 26.5843 1.89812 26.319L2.46018 25.8267C2.62154 26.0154 2.80889 26.1549 3.02223 26.2451C3.2383 26.3354 3.4612 26.3805 3.69095 26.3805C4.04103 26.3805 4.31864 26.2903 4.52377 26.1097C4.72889 25.9265 4.83146 25.6735 4.83146 25.3508C4.83146 24.9843 4.73026 24.7285 4.52787 24.5836C4.32548 24.4359 4.06291 24.3621 3.74018 24.3621H3.25197L3.35864 23.6851H3.70325C3.96855 23.6851 4.19966 23.6126 4.39659 23.4677C4.59624 23.32 4.69607 23.0944 4.69607 22.7908C4.69607 22.5173 4.60171 22.3067 4.413 22.159C4.22701 22.0085 3.9959 21.9333 3.71966 21.9333C3.48171 21.9333 3.27112 21.9771 3.08787 22.0646C2.90462 22.1521 2.72411 22.2779 2.54633 22.4421L2.05812 21.921C2.30701 21.6858 2.57642 21.5108 2.86633 21.3959C3.15624 21.281 3.4653 21.2236 3.79351 21.2236ZM8.16564 26.3149C8.16564 26.0961 8.24085 25.9101 8.39128 25.7569C8.54444 25.601 8.73316 25.5231 8.95744 25.5231C9.18171 25.5231 9.37043 25.601 9.52359 25.7569C9.67675 25.9101 9.75333 26.0961 9.75333 26.3149C9.75333 26.5337 9.67675 26.721 9.52359 26.8769C9.37043 27.0328 9.18171 27.1108 8.95744 27.1108C8.73316 27.1108 8.54444 27.0328 8.39128 26.8769C8.24085 26.721 8.16564 26.5337 8.16564 26.3149Z" fill="black"/>
<path d="M5.92684 10.2779V11H2.5012V10.2779H3.88377V6.28205L2.63659 7.04923L2.24274 6.40513L3.98223 5.33846H4.79454V10.2779H5.92684ZM8.16564 10.3149C8.16564 10.0961 8.24085 9.91009 8.39128 9.75692C8.54444 9.60103 8.73316 9.52308 8.95744 9.52308C9.18171 9.52308 9.37043 9.60103 9.52359 9.75692C9.67675 9.91009 9.75333 10.0961 9.75333 10.3149C9.75333 10.5337 9.67675 10.721 9.52359 10.8769C9.37043 11.0328 9.18171 11.1108 8.95744 11.1108C8.73316 11.1108 8.54444 11.0328 8.39128 10.8769C8.24085 10.721 8.16564 10.5337 8.16564 10.3149Z" fill="black"/>
</svg>
