<svg width="32" height="32" viewBox="0 0 32 32" fill="none" xmlns="http://www.w3.org/2000/svg">
<g clip-path="url(#clip0_6_26)">
<path d="M9.60888 8.68H22.3769V12.592H21.7529L21.0569 10.072C21.0089 9.88 20.9529 9.744 20.8889 9.664C20.8409 9.568 20.7369 9.512 20.5769 9.496C20.4169 9.464 20.1449 9.448 19.7609 9.448H17.0489V23.056C17.0489 23.616 17.0729 23.944 17.1209 24.04C17.1689 24.136 17.3209 24.2 17.5769 24.232L18.8969 24.376V25H13.1129V24.376L14.4329 24.232C14.6889 24.2 14.8409 24.136 14.8889 24.04C14.9369 23.944 14.9609 23.616 14.9609 23.056V9.448H12.2249C11.8569 9.448 11.5849 9.464 11.4089 9.496C11.2489 9.512 11.1369 9.568 11.0729 9.664C11.0249 9.744 10.9769 9.88 10.9289 10.072L10.2329 12.592H9.60888V8.68Z" fill="black"/>
<path d="M9.29688 19.672H22.7129V21.232H9.29688V19.672Z" fill="black"/>
</g>
<defs>
<clipPath id="clip0_6_26">
<rect width="32" height="32" fill="white"/>
</clipPath>
</defs>
</svg>
