<svg width="32" height="32" viewBox="0 0 32 32" fill="none" xmlns="http://www.w3.org/2000/svg">
<g clip-path="url(#clip0_6_33)">
<path d="M18.7269 9.328V8.68H23.3109V9.328L21.9909 9.448C21.7349 9.48 21.5829 9.544 21.5349 9.64C21.4869 9.736 21.4629 10.064 21.4629 10.624V19.456C21.4629 21.28 21.0389 22.704 20.1909 23.728C19.3589 24.736 18.0789 25.24 16.3509 25.24C14.4629 25.24 13.0149 24.688 12.0069 23.584C11.0149 22.48 10.5189 20.96 10.5189 19.024V10.624C10.5189 10.064 10.4949 9.736 10.4469 9.64C10.3989 9.544 10.2469 9.48 9.99091 9.448L8.67091 9.328V8.68H14.4549V9.328L13.1349 9.448C12.8789 9.48 12.7269 9.544 12.6789 9.64C12.6309 9.736 12.6069 10.064 12.6069 10.624V19.384C12.6069 21.096 12.9269 22.368 13.5669 23.2C14.2229 24.032 15.2149 24.448 16.5429 24.448C17.8869 24.448 18.8949 24.024 19.5669 23.176C20.2389 22.328 20.5749 21.096 20.5749 19.48V10.624C20.5749 10.064 20.5509 9.736 20.5029 9.64C20.4549 9.544 20.3029 9.48 20.0469 9.448L18.7269 9.328Z" fill="black"/>
<path d="M7.87891 27.808H24.1269V29.368H7.87891V27.808Z" fill="black"/>
</g>
<defs>
<clipPath id="clip0_6_33">
<rect width="32" height="32" fill="white"/>
</clipPath>
</defs>
</svg>
